Genre:Action | Sci-Fi | Thriller
Language:English 
http://www.imdb.com/title/tt1440129/
Source:Twixx,p76/26K Thanks!
Encoder:Tony

Format : AVI
Format/Info : Audio Video Interleave
File size : 1.45 GiB
Duration : 2h 0mn
Overall bit rate : 1 712 Kbps

Video
ID : 0
Format : MPEG-4 Visual
Format profile : Advanced Simple@L5
Format settings, BVOP : 1
Format settings, QPel : No
Format settings, GMC : No warppoints
Format settings, Matrix : Default (H.263)
Codec ID : XVID
Codec ID/Hint : XviD
Duration : 2h 0mn
Bit rate : 1 510 Kbps
Width : 640 pixels
Height : 240 pixels
Display aspect ratio : 2.667
Frame rate : 25.000 fps
Color space : YUV
Chroma subsampling : 4:2:0
Bit depth : 8 bits
Scan type : Progressive
Compression mode : Lossy
Bits/(Pixel*Frame) : 0.393
Stream size : 1.27 GiB (88%)
Writing library : XviD 1.2.1 (UTC 2008-12-04)

Audio
ID : 1
Format : AC-3
Format/Info : Audio Coding 3
Mode extension : CM (complete main)
Codec ID : 2000
Duration : 2h 0mn
Bit rate mode : Constant
Bit rate : 192 Kbps
Channel(s) : 2 channels
Channel positions : Front: L R
Sampling rate : 48.0 KHz
Bit depth : 16 bits
Compression mode : Lossy
Stream size : 166 MiB (11%)
Alignment : Aligned on interleaves
Interleave, duration : 40 ms (1.00 video frame)
Interleave, preload duration : 512 ms


Plot:
A fleet of ships is forced to do battle with an armada of unknown origins in order to discover and thwart their destructive goals.
 
http://img14.imageshack.us/img14/8351/vlcsnap2012042406h39m06.png 
http://img687.imageshack.us/img687/2188/vlcsnap2012042406h38m34.png 
http://img208.imageshack.us/img208/7282/vlcsnap2012042406h37m15.png 
http://img819.imageshack.us/img819/6796/vlcsnap2012042406h38m18.png 
http://img26.imageshack.us/img26/4817/vlcsnap2012042406h38m05.png
